<svg id="Layer_1" enable-background="new 0 0 512 512" height="512" viewBox="0 0 512 512" width="512" xmlns="http://www.w3.org/2000/svg"><path d="m400 480h-59.117c-17.422-12.038-29.732-30.284-34.579-50.672 13.275-3.969 24.755-12.134 32.888-22.957 31.339 23.591 76.808 1.273 76.808-38.371 0-16.338-8.167-30.906-20.826-39.596 10.806-26.193 3.014-56.217-18.853-74.066 13.35-24.801 8.762-54.424-9.658-74.109 5.899-26.43-7.946-52.811-32.111-63.485 6.078-26.198-7.232-52.45-30.842-63.481 3.126-28.325-19.112-53.263-47.71-53.263-22.609 0-41.618 15.713-46.679 36.793-22.447 9.973-36.47 34.02-32.722 59.402-11.936 11.767-17.618 27.872-16.451 43.872-18.741 16.533-21.517 44.814-6.519 64.741-21.761 16.351-30.658 44.258-22.836 69.881-18.775 18.665-23.588 46.396-13.967 69.715-12.659 8.69-20.826 23.258-20.826 39.596 0 44.883 56.265 65.028 84.888 30.705 8.669 2.057 18.02 1.73 27.031-1.44-1.097 26.8-14.653 51.45-36.803 66.735h-59.116c-8.836 0-16 7.163-16 16s7.164 16 16 16h288c8.837 0 16-7.163 16-16s-7.163-16-16-16zm-216.891-98.696c-8.683-5.823-20.549-1.878-24.01 7.992-2.245 6.402-8.313 10.704-15.099 10.704-8.822 0-16-7.178-16-16 0-8.157 6.099-14.99 14.186-15.894 12.944-1.446 18.829-16.985 10.084-26.642-13.126-14.493-10.391-37.616 6.529-48.439 7.154-4.577 9.486-13.945 5.313-21.342-12.319-21.829 4.385-49.079 29.741-47.624 11.33.64 19.724-10.392 16.063-21.136-2.478-7.39-9.437-11.585-16.559-10.989-17.449 1.468-24.241-22.342-8.517-30.241 6.924-3.479 10.36-11.42 8.156-18.849-3.024-10.19.941-21.262 10.183-27.125 6.417-4.071 9.085-12.095 6.384-19.197-5.295-13.933 3.328-29.147 17.633-32.043 7.613-1.541 13.039-8.329 12.82-16.094-.249-8.805 6.893-16.385 15.984-16.385 12.358 0 20.023 13.484 13.813 24.07-5.934 10.108.684 22.989 12.371 24.036 18.46 1.652 28.312 23.257 17.024 38.283-7.904 10.523-.385 25.611 12.792 25.611 17.616 0 29.207 18.443 21.696 34.271-3.305 6.961-1.178 15.287 5.059 19.813 16.101 11.68 17.983 35.335 3.106 49.27-8.636 8.089-5.796 22.504 5.337 26.664 20.999 7.848 27.751 34.641 12.531 51.449-8.742 9.655-2.862 25.194 10.084 26.641 8.088.902 14.187 7.735 14.187 15.892 0 8.822-7.178 16-16 16s-16-7.178-16-16c0-8.837-7.163-16-16-16s-16 7.163-16 16c0 29.851-37.501 43.399-56.603 20.456-3.827-4.594-9.98-6.748-15.98-5.331-8.727 2.068-17.822.432-25.211-4.527-6.065-4.069-14.117-3.517-19.568 1.346-5.436 4.85-13.488 5.411-19.529 1.36zm56.714 34.693c1.857.003 3.719-.068 5.584-.228 8.116 7.249 17.898 12.267 28.447 14.649 3.254 18.018 10.726 35.018 21.586 49.582h-78.759c13.734-18.368 21.902-40.562 23.142-64.003z"/></svg>